<svg width="24" height="28" viewBox="0 0 84 78" fill="none" xmlns="http://www.w3.org/2000/svg">
<g clip-path="url(#clip0_18_557)">
<path opacity="0.5" d="M62.2892 39.2422L57.2257 49.2788C54.6839 54.3222 49.53 57.507 43.8837 57.507H10.1773C4.59132 57.507 0 62.0782 0 67.6842C0 73.2903 4.57122 77.8615 10.1773 77.8615H78.9264C82.9953 77.8615 85.4065 73.3104 83.1159 69.9447L62.2892 39.2422Z" fill="white"/>
<path d="M73.8126 0H15.3612C6.89192 0 0.0200195 6.87191 0.0200195 15.3513V67.6642C0.0200195 62.0782 4.59124 57.4869 10.1973 57.4869H43.9038C49.5399 57.4869 54.7039 54.3021 57.2457 49.2587L78.3437 7.33405C80.0415 3.96843 77.5902 0 73.8227 0H73.8026H73.8126ZM45.5213 31.6067C42.1054 31.6067 39.3426 29.4467 39.3426 26.7743C39.3426 24.1019 42.1155 21.9419 45.5213 21.9419C48.9271 21.9419 51.7 24.1019 51.7 26.7743C51.7 29.4467 48.9271 31.6067 45.5213 31.6067Z" fill="white"/>
</g>
<defs>
<clipPath id="clip0_18_557">
<rect width="84" height="77.8514" fill="white"/>
</clipPath>
</defs>
</svg>
